<?xml version="1.0" encoding="utf-8" ?>
<svg xmlns="http://www.w3.org/2000/svg" xmlns:xlink="http://www.w3.org/1999/xlink" width="512" height="512">
	<path d="M429.396 144.617C426.224 144.644 422.898 144.663 419.75 144.309C388.053 140.748 361.714 109.469 365.405 77.4645C368.945 46.7749 396.773 25.0195 426.788 24.1237L427.196 24.0943C480.267 22.4527 511.801 85.4417 473.901 125.433C462.503 137.461 445.822 144.208 429.396 144.617ZM423.749 39.811C382.246 44.03 366.227 92.6267 398.703 118.929C408.516 126.877 419.852 129.821 432.327 128.97C457.579 125.571 477.716 105.265 474.227 78.9726C470.611 51.7267 449.393 38.7175 423.749 39.811Z"/>
	<path d="M432.56 123.448C421.457 124.369 411.575 122.145 402.643 115.274C372.827 92.3339 387.758 49.2759 423.73 45.3501C459.089 41.747 482.683 80.3915 460.967 107.979C453.76 117.135 443.976 122.036 432.56 123.448ZM426.134 60.5919C392.563 64.4774 396.491 109.11 430.246 108.225C461.482 104.31 458.953 64.2432 432.25 60.7029L431.81 60.6383C430.03 60.3923 427.908 60.3401 426.134 60.5919Z"/>
	<path d="M278.004 383L11.4998 383.008C7.39917 382.582 2.32703 376.686 3.90491 372.53C5.4356 368.497 10.2888 366.112 13.7487 363.948C36.8985 349.472 53.0937 321.991 65.8403 298.374C76.2243 279.134 91.7714 236.84 118.425 240.497C129.06 241.957 137.621 250.323 143.823 258.525C149.608 246.308 153.121 232.466 163.223 222.867C170.283 216.157 176.976 215.744 186.112 216.007L190.87 207.427C203.02 187.254 229.876 149.693 254.89 146.34C266.295 144.64 277.092 153.249 284.47 160.864C302.525 179.497 311.646 204.571 320.234 228.5L325.113 241.759C326.555 245.602 327.963 249.444 329.962 253.04C337.651 243.59 336.773 226.135 351.248 216.337C360.457 210.104 372.656 213.698 379.645 221.591C383.77 226.248 386.469 232.716 391.367 236.645C393.551 238.398 401.196 237.652 398.808 246.012L398.734 246.25C407.143 254.768 416.633 261.98 424.788 270.746C432.274 278.794 433.06 282.542 437.351 292.676C450.567 323.889 460.81 338.764 489.998 359.193C494.372 362.255 506.935 368.373 506.982 374.5C507.053 383.67 497.106 383.05 491.145 383.022L278.004 383ZM255.311 161.79C237.939 166.13 213.282 200.821 204.826 214.906L201.297 221.423C197.491 229.011 195.283 233.228 186.375 232.582L180.442 232.015C179.546 231.9 177.684 231.498 176.833 231.811C169.403 234.547 156.57 265.853 154.525 276.176L170.161 293.255C189.555 313.481 210.662 331.788 234.02 347.321L249.899 357.191C255.567 360.39 261.649 363.195 266.747 367.278L293.125 367.334L394.462 367.171C393.15 366.806 387.756 362.636 386.46 361.677L375.482 352.858C349.103 329.974 329.613 299.274 316.866 266.942L308.659 243.36C300.232 218.589 291.179 191.171 273.089 171.577C268.607 166.723 262.902 161.456 255.875 161.748L255.311 161.79ZM361.509 228.875C358.251 229.851 355.982 233.456 354.459 236.289C347.51 249.21 347.959 259.487 335.182 269.057C350.737 307.855 378.792 342.814 416.841 361.117L423.299 364.171C429.201 366.874 427.602 367.207 434.956 367.262L448.489 367.334L474.37 367.165C472.85 366.669 469.687 363.619 468.332 362.503L461.683 356.737C447.531 343.892 436.126 328.461 428.083 311.125C423.791 301.872 420.552 291.448 414.093 283.447C408.999 277.138 400.221 268.682 393.32 264.77C389.071 262.362 381.598 254.415 382.993 249.25C381.25 247.151 378.854 245.484 376.968 243.468C373.475 239.73 367.168 229.366 361.723 228.889L361.509 228.875ZM112.62 255.772C105.422 258.291 95.3951 275.978 91.7127 282.68L73.8111 316.616C66.1319 330.315 57.0923 344.372 46.566 356.091L41.0228 361.779C39.6089 363.113 36.6064 366.474 35.3357 367.288L158.375 367.334L235.471 367.087C228.052 363.088 220.179 357.11 213.418 352.087C180.769 327.834 154.388 303.447 131.318 270.175C126.576 263.335 121.999 255.495 112.62 255.772Z"/>
	<path d="M444.854 411.315L12.0165 411.145C3.29967 410.789 -0.138474 396.794 15.9799 395.858L430.454 395.746C436.2 395.748 442.158 395.43 447.884 395.81C458.463 396.512 461.7 411.17 444.854 411.315Z"/>
	<path d="M405.501 451.252L405.079 450.825C401.787 451.198 398.074 450.819 394.735 450.813L45.3596 450.877C37.6437 450.804 32.8453 436.24 48.3267 435.354L395.923 435.482C400.026 435.482 404.316 435.241 408.403 435.541C417.793 436.231 419.034 451.219 405.501 451.252Z"/>
	<path d="M274.375 485.296L145.945 485.313C139.131 485.322 124.574 488.111 124.288 477.69C124.06 469.385 132.154 469.699 137.902 469.695L200.949 469.684L342.216 469.674C351.648 469.699 353.541 480.792 346.716 484.239L346.379 484.407C342.434 486.511 324.786 485.285 319.531 485.287L274.375 485.296Z"/>
</svg>
